HIERARCHY
ROOT Hips
{
	OFFSET -3.958830 18.904000 13.208200
	CHANNELS 6 Xposition Yposition Zposition Zrotation Yrotation Xrotation 
	JOINT LHipJoint
	{
		OFFSET 0.000000 0.000000 0.000000
		CHANNELS 3 Zrotation Yrotation Xrotation
		JOINT LeftUpLeg
		{
			OFFSET 1.800000 -1.400000 0.085000
			CHANNELS 3 Zrotation Yrotation Xrotation
			JOINT LeftLeg
			{
				OFFSET 2.215000 -6.000000 0.000000
				CHANNELS 3 Zrotation Yrotation Xrotation
				JOINT LeftFoot
				{
					OFFSET 2.500000 -6.900000 0.000000
					CHANNELS 3 Zrotation Yrotation Xrotation
					JOINT LeftToeBase
					{
						OFFSET 0.200000 -0.500000 1.950000
						CHANNELS 3 Zrotation Yrotation Xrotation
						End Site
						{
							OFFSET 0.000000 0.000000 0.000000
						}
					}
				}
			}
		}
	}
	JOINT RHipJoint
	{
		OFFSET 0.000000 0.000000 0.000000
		CHANNELS 3 Zrotation Yrotation Xrotation
		JOINT RightUpLeg
		{
			OFFSET -1.800000 -1.400000 0.085000
			CHANNELS 3 Zrotation Yrotation Xrotation
			JOINT RightLeg
			{
				OFFSET -2.215000 -6.000000 0.000000
				CHANNELS 3 Zrotation Yrotation Xrotation
				JOINT RightFoot
				{
					OFFSET -2.500000 -6.900000 0.000000
					CHANNELS 3 Zrotation Yrotation Xrotation
					JOINT RightToeBase
					{
						OFFSET -0.200000 -0.500000 1.950000
						CHANNELS 3 Zrotation Yrotation Xrotation
						End Site
						{
							OFFSET 0.000000 0.000000 0.000000
						}
					}
				}
			}
		}
	}
	JOINT LowerBack
	{
		OFFSET 0.000000 0.000000 0.000000
		CHANNELS 3 Zrotation Yrotation Xrotation
		JOINT Spine
		{
			OFFSET -0.087000 1.940000 -0.288900
			CHANNELS 3 Zrotation Yrotation Xrotation
			JOINT Spine1
			{
				OFFSET 0.000000 1.950000 0.060000
				CHANNELS 3 Zrotation Yrotation Xrotation
				JOINT Neck
				{
					OFFSET 0.000000 0.000000 0.000000
					CHANNELS 3 Zrotation Yrotation Xrotation
					JOINT Neck1
					{
						OFFSET 0.000000 1.600000 0.340000
						CHANNELS 3 Zrotation Yrotation Xrotation
						JOINT Head
						{
							OFFSET 0.000000 1.667000 -0.240000
							CHANNELS 3 Zrotation Yrotation Xrotation
							End Site
							{
								OFFSET 0.000000 0.000000 0.000000
							}
						}
					}
				}
				JOINT LeftShoulder
				{
					OFFSET 0.000000 0.000000 0.000000
					CHANNELS 3 Zrotation Yrotation Xrotation
					JOINT LeftArm
					{
						OFFSET 2.700000 1.550000 -0.730000
						CHANNELS 3 Zrotation Yrotation Xrotation
						JOINT LeftForeArm
						{
							OFFSET 5.450000 0.000000 0.000000
							CHANNELS 3 Zrotation Yrotation Xrotation
							JOINT LeftHand
							{
								OFFSET 3.450000 0.000000 0.000000
								CHANNELS 3 Zrotation Yrotation Xrotation
								JOINT LeftHandIndex1
								{
									OFFSET 0.750000 0.000000 0.000000
									CHANNELS 3 Zrotation Yrotation Xrotation
									End Site
									{
										OFFSET 0.000000 0.000000 0.000000
									}
								}
							}
						}
					}
				}
				JOINT RightShoulder
				{
					OFFSET 0.000000 0.000000 0.000000
					CHANNELS 3 Zrotation Yrotation Xrotation
					JOINT RightArm
					{
						OFFSET -2.700000 1.550000 -0.730000
						CHANNELS 3 Zrotation Yrotation Xrotation
						JOINT RightForeArm
						{
							OFFSET -5.450000 0.000000 0.000000
							CHANNELS 3 Zrotation Yrotation Xrotation
							JOINT RightHand
							{
								OFFSET -3.450000 0.000000 0.000000
								CHANNELS 3 Zrotation Yrotation Xrotation
								JOINT RightHandIndex1
								{
									OFFSET -0.750000 0.000000 0.000000
									CHANNELS 3 Zrotation Yrotation Xrotation
									End Site
									{
										OFFSET 0.000000 0.000000 0.000000
									}
								}
							}
						}
					}
				}
			}
		}
	}
}
MOTION
Frames: 7
Frame Time: 0.016667
-0.416830 16.573610 -2.475030 -1.610078 5.395782 -5.606422 -15.335323 12.851605 3.213133 -4.358927 -5.144111 10.641130 -4.728139 12.384790 53.449957 0.543121 11.617206 0.902490 0.257720 -0.029050 -0.141170 18.464846 -8.596635 4.388658 1.984731 6.913099 -53.299716 1.898839 -7.026128 39.318192 -0.734162 -5.047975 2.310040 0.148600 0.865760 0.654960 -3.670751 -3.906676 -8.383218 11.108030 -14.189221 40.302802 -5.616354 -12.290086 8.174551 -0.650870 -7.158616 -5.293112 -15.137804 1.440904 28.057066 0.514210 -4.072500 -34.513220 -8.438995 -11.401525 -4.046410 30.523482 -16.438556 -8.437661 76.989846 -52.055707 -34.919731 -3.924963 2.013971 1.140780 0.218130 0.209510 0.449550 10.454135 10.537623 5.034270 -9.330851 -8.619547 -8.996767 -109.224191 53.911847 -69.773727 1.561423 -0.559475 -0.548600 0.747900 0.387770 0.025490 
-0.422190 16.496860 -2.471710 -1.054665 4.967278 -6.342413 -15.412679 13.031430 3.272893 -4.915467 -4.743848 11.839261 -3.651787 11.678943 52.882624 0.521318 11.476629 0.962231 0.183410 -0.129690 -0.127510 18.375656 -8.496912 4.395695 2.122264 6.933862 -53.142373 1.109703 -6.831524 40.304099 -0.734674 -5.110390 2.311475 0.089590 0.853940 0.624140 -3.428578 -4.374202 -8.446108 9.246066 -13.398230 41.271493 -4.455789 -12.018944 8.376105 -0.277780 -6.619550 -5.317526 -14.968754 1.402405 30.685387 -0.790490 -3.828780 -34.965440 -8.572612 -11.369997 -3.974651 33.432059 -13.517894 -7.864538 76.463786 -50.853377 -33.189012 -3.985521 1.971755 1.171350 0.209360 0.210240 0.397030 9.945203 10.627073 4.910173 -12.161407 -11.741844 -8.575903 -108.747194 53.486319 -67.716077 1.600954 -0.503532 -0.585520 0.778880 0.424650 -0.011960 
-0.442840 16.367700 -2.452990 -0.914133 5.177485 -7.841800 -15.525567 13.319917 3.306993 -4.165157 -4.606978 14.875641 -3.247676 11.292718 50.886308 0.439667 11.379326 1.013546 0.072760 -0.346230 -0.053690 18.255594 -8.289459 4.398016 2.609803 6.916487 -53.402105 -0.401072 -6.730017 43.308303 -0.821825 -5.456649 2.156412 -0.033380 0.825070 0.598240 -3.094687 -5.210079 -8.506841 6.928422 -13.243823 42.512676 -2.857280 -12.700725 8.891643 0.080240 -6.830776 -5.853920 -16.807273 3.366199 34.502218 -2.448260 -2.531540 -38.157050 -7.547957 -10.851194 -3.671001 36.062821 -7.765936 -6.376996 76.204880 -51.677804 -32.902690 -4.009264 1.845765 1.318560 0.133380 0.238660 0.298520 8.438598 10.576772 5.061145 -15.020735 -16.506115 -7.729108 -111.973006 53.020362 -70.675021 1.725217 -0.450465 -0.680140 0.832350 0.504870 -0.095040 
-0.475170 16.290340 -2.425670 -1.274465 2.985195 -8.599968 -15.713765 13.661898 3.342721 -3.025033 -4.486494 16.720419 -4.594173 11.823261 47.732863 0.438028 11.164759 1.093235 -0.062540 -0.531580 -0.099730 18.083220 -7.805794 4.564954 4.872615 8.409795 -53.463664 -2.070447 -6.080040 45.938906 -0.896801 -5.603155 2.152097 -0.185890 0.756930 0.508830 -2.560186 -6.459758 -8.681482 3.035303 -12.578720 42.935302 0.051856 -13.127802 8.891128 0.585250 -8.261607 -7.676634 -23.423938 7.154810 42.622387 -2.339640 -2.124470 -42.194460 -8.147101 -11.530461 -2.393947 37.077923 0.801365 -3.825256 82.010359 -53.911340 -37.131542 -3.931347 1.624244 1.464530 -0.007260 0.277520 0.232460 8.370986 13.268561 6.263396 -18.884864 -19.093011 -6.694074 -115.146283 53.502815 -74.124220 1.873915 -0.259443 -0.738090 0.872350 0.567590 -0.125910 
-0.492030 16.292570 -2.364690 -1.633826 -0.921225 -8.955072 -15.784504 13.684687 3.358786 -3.022496 -3.347917 17.668406 -5.941243 12.399171 44.710483 0.526545 10.910591 1.171859 -0.191690 -0.705960 -0.211800 18.041205 -7.509733 4.790908 7.311320 10.605303 -52.128259 -3.295114 -5.187836 46.785472 -0.959276 -5.490352 2.240406 -0.378620 0.717180 0.541460 -2.374994 -6.767340 -8.834083 1.596620 -11.309710 42.722672 1.109537 -11.944790 8.120666 1.389939 -8.156608 -10.600326 -28.152914 11.840009 52.513825 0.794140 -1.199450 -45.012780 -8.957551 -13.553744 -0.524723 34.774847 4.276734 -2.743770 91.748698 -56.131591 -45.816114 -3.841297 1.408922 1.576010 -0.105350 0.345090 0.195930 7.832080 15.941741 8.548267 -18.546141 -20.320747 -6.058159 -121.045977 54.826918 -84.124923 1.990831 -0.199955 -0.693770 0.816310 0.645290 -0.113070 
-0.518570 16.364150 -2.308250 -2.086403 -3.766170 -9.084142 -15.809538 13.677576 3.330306 -2.853347 -2.361556 17.613305 -6.539282 12.567236 42.519830 0.531159 10.585605 1.257977 -0.070820 -0.590820 -0.100200 18.029120 -7.429887 4.893442 9.231133 11.893451 -49.748764 -3.466219 -4.516563 45.226209 -0.963314 -5.105956 2.363715 -0.347680 0.609150 0.551190 -2.306048 -6.736610 -8.870739 1.111937 -10.010602 42.018375 1.445512 -10.564366 9.550590 1.519858 -7.567037 -11.567217 -27.345903 12.587646 55.007744 1.025360 -0.156460 -44.781640 -9.777763 -13.529830 0.589671 30.273122 4.949285 -2.617213 100.237392 -58.178204 -57.033948 -3.682154 1.325834 1.579670 -0.164600 0.400210 0.220170 8.299120 16.079465 9.229795 -14.654738 -17.503513 -6.842663 -123.247601 56.477525 -91.570968 2.032833 -0.342834 -0.624640 0.729830 0.535600 -0.128640 
-0.513150 16.486310 -2.251260 -2.723263 -6.647922 -9.403636 -15.714318 13.577016 3.353109 -3.271039 -0.814840 18.223702 -6.534433 12.267687 39.575984 0.431589 10.288008 1.406603 -0.132010 -0.620550 -0.175130 18.106318 -7.667368 4.816396 10.894431 12.069080 -46.006480 -3.085655 -4.182570 41.881165 -0.799120 -4.574624 2.613048 -0.309270 0.763180 0.499150 -2.536512 -6.150142 -8.799478 2.701459 -9.475236 41.388726 0.013106 -9.591754 11.571262 1.388807 -7.590569 -12.107006 -25.580822 11.224694 52.205953 1.743350 -0.658500 -37.878330 -10.051325 -13.058648 1.995333 23.447743 4.242052 -2.520032 107.212682 -60.695533 -71.423482 -3.787103 1.134742 1.488890 -0.035010 0.300200 0.251560 8.561292 15.800484 9.486094 -8.627613 -13.381705 -8.045897 -128.281785 58.947958 -105.297816 1.980754 -0.581470 -0.700330 0.833500 0.564410 -0.100800 
